{
    "asset" : {
        "generator" : "Khronos glTF Blender I/O v1.3.48",
        "version" : "2.0"
    },
    "scene" : 0,
    "scenes" : [
        {
            "name" : "Scene",
            "nodes" : [
                0
            ]
        }
    ],
    "nodes" : [
        {
            "mesh" : 0,
            "name" : "Areca palm",
            "translation" : [
                -3.1030731201171875,
                0,
                0
            ]
        }
    ],
    "materials" : [
        {
            "doubleSided" : true,
            "emissiveFactor" : [
                0,
                0,
                0
            ],
            "name" : "metal",
            "pbrMetallicRoughness" : {
                "baseColorFactor" : [
                    0.34191441535949707,
                    0.34191441535949707,
                    0.34191441535949707,
                    1
                ],
                "metallicFactor" : 0.20000000298023224,
                "roughnessFactor" : 0.10000000149011612
            }
        },
        {
            "doubleSided" : true,
            "emissiveFactor" : [
                0,
                0,
                0
            ],
            "name" : "Soil2",
            "pbrMetallicRoughness" : {
                "metallicFactor" : 0
            }
        },
        {
            "doubleSided" : true,
            "name" : "Areca palm",
            "pbrMetallicRoughness" : {}
        },
        {
            "doubleSided" : true,
            "name" : "Areca palm2",
            "pbrMetallicRoughness" : {}
        }
    ],
    "meshes" : [
        {
            "name" : "Cylinder.2601",
            "primitives" : [
                {
                    "attributes" : {
                        "POSITION" : 0,
                        "NORMAL" : 1,
                        "TEXCOORD_0" : 2
                    },
                    "indices" : 3,
                    "material" : 0
                },
                {
                    "attributes" : {
                        "POSITION" : 4,
                        "NORMAL" : 5,
                        "TEXCOORD_0" : 6
                    },
                    "indices" : 7,
                    "material" : 1
                },
                {
                    "attributes" : {
                        "POSITION" : 8,
                        "NORMAL" : 9,
                        "TEXCOORD_0" : 10
                    },
                    "indices" : 11,
                    "material" : 2
                },
                {
                    "attributes" : {
                        "POSITION" : 12,
                        "NORMAL" : 13,
                        "TEXCOORD_0" : 14
                    },
                    "indices" : 15,
                    "material" : 3
                }
            ]
        }
    ],
    "accessors" : [
        {
            "bufferView" : 0,
            "componentType" : 5126,
            "count" : 250,
            "max" : [
                0.7222712635993958,
                0.9345333576202393,
                0.7222715020179749
            ],
            "min" : [
                -0.7222714424133301,
                -1.3665989229139086e-08,
                -0.722271203994751
            ],
            "type" : "VEC3"
        },
        {
            "bufferView" : 1,
            "componentType" : 5126,
            "count" : 250,
            "type" : "VEC3"
        },
        {
            "bufferView" : 2,
            "componentType" : 5126,
            "count" : 250,
            "type" : "VEC2"
        },
        {
            "bufferView" : 3,
            "componentType" : 5123,
            "count" : 666,
            "type" : "SCALAR"
        },
        {
            "bufferView" : 4,
            "componentType" : 5126,
            "count" : 32,
            "max" : [
                0.7183790802955627,
                0.8979741334915161,
                0.7183793187141418
            ],
            "min" : [
                -0.7183791995048523,
                0.8979741334915161,
                -0.718379020690918
            ],
            "type" : "VEC3"
        },
        {
            "bufferView" : 5,
            "componentType" : 5126,
            "count" : 32,
            "type" : "VEC3"
        },
        {
            "bufferView" : 6,
            "componentType" : 5126,
            "count" : 32,
            "type" : "VEC2"
        },
        {
            "bufferView" : 7,
            "componentType" : 5123,
            "count" : 90,
            "type" : "SCALAR"
        },
        {
            "bufferView" : 8,
            "componentType" : 5126,
            "count" : 4800,
            "max" : [
                2.4641435146331787,
                6.622598648071289,
                1.5281895399093628
            ],
            "min" : [
                -2.035914897918701,
                0.8975028991699219,
                -1.94544517993927
            ],
            "type" : "VEC3"
        },
        {
            "bufferView" : 9,
            "componentType" : 5126,
            "count" : 4800,
            "type" : "VEC3"
        },
        {
            "bufferView" : 10,
            "componentType" : 5126,
            "count" : 4800,
            "type" : "VEC2"
        },
        {
            "bufferView" : 11,
            "componentType" : 5123,
            "count" : 7272,
            "type" : "SCALAR"
        },
        {
            "bufferView" : 12,
            "componentType" : 5126,
            "count" : 12944,
            "max" : [
                2.896233081817627,
                6.732818603515625,
                2.3131422996520996
            ],
            "min" : [
                -2.340036392211914,
                1.501529335975647,
                -2.4361488819122314
            ],
            "type" : "VEC3"
        },
        {
            "bufferView" : 13,
            "componentType" : 5126,
            "count" : 12944,
            "type" : "VEC3"
        },
        {
            "bufferView" : 14,
            "componentType" : 5126,
            "count" : 12944,
            "type" : "VEC2"
        },
        {
            "bufferView" : 15,
            "componentType" : 5123,
            "count" : 19416,
            "type" : "SCALAR"
        }
    ],
    "bufferViews" : [
        {
            "buffer" : 0,
            "byteLength" : 3000,
            "byteOffset" : 0
        },
        {
            "buffer" : 0,
            "byteLength" : 3000,
            "byteOffset" : 3000
        },
        {
            "buffer" : 0,
            "byteLength" : 2000,
            "byteOffset" : 6000
        },
        {
            "buffer" : 0,
            "byteLength" : 1332,
            "byteOffset" : 8000
        },
        {
            "buffer" : 0,
            "byteLength" : 384,
            "byteOffset" : 9332
        },
        {
            "buffer" : 0,
            "byteLength" : 384,
            "byteOffset" : 9716
        },
        {
            "buffer" : 0,
            "byteLength" : 256,
            "byteOffset" : 10100
        },
        {
            "buffer" : 0,
            "byteLength" : 180,
            "byteOffset" : 10356
        },
        {
            "buffer" : 0,
            "byteLength" : 57600,
            "byteOffset" : 10536
        },
        {
            "buffer" : 0,
            "byteLength" : 57600,
            "byteOffset" : 68136
        },
        {
            "buffer" : 0,
            "byteLength" : 38400,
            "byteOffset" : 125736
        },
        {
            "buffer" : 0,
            "byteLength" : 14544,
            "byteOffset" : 164136
        },
        {
            "buffer" : 0,
            "byteLength" : 155328,
            "byteOffset" : 178680
        },
        {
            "buffer" : 0,
            "byteLength" : 155328,
            "byteOffset" : 334008
        },
        {
            "buffer" : 0,
            "byteLength" : 103552,
            "byteOffset" : 489336
        },
        {
            "buffer" : 0,
            "byteLength" : 38832,
            "byteOffset" : 592888
        }
    ],
    "buffers" : [
        {
            "byteLength" : 631720,
            "uri" : "areca_palm.bin"
        }
    ]
}
