{
    "asset" : {
        "generator" : "Khronos glTF Blender I/O v1.3.48",
        "version" : "2.0"
    },
    "scene" : 0,
    "scenes" : [
        {
            "name" : "Scene",
            "nodes" : [
                0
            ]
        }
    ],
    "nodes" : [
        {
            "mesh" : 0,
            "name" : "forward_back"
        }
    ],
    "meshes" : [
        {
            "name" : "Cube.001",
            "primitives" : [
                {
                    "attributes" : {
                        "POSITION" : 0,
                        "NORMAL" : 1,
                        "TEXCOORD_0" : 2
                    },
                    "indices" : 3
                }
            ]
        }
    ],
    "accessors" : [
        {
            "bufferView" : 0,
            "componentType" : 5126,
            "count" : 434,
            "max" : [
                0.18690180778503418,
                0.18690180778503418,
                0.18690180778503418
            ],
            "min" : [
                -0.18690180778503418,
                -0.18690180778503418,
                -0.18690180778503418
            ],
            "type" : "VEC3"
        },
        {
            "bufferView" : 1,
            "componentType" : 5126,
            "count" : 434,
            "type" : "VEC3"
        },
        {
            "bufferView" : 2,
            "componentType" : 5126,
            "count" : 434,
            "type" : "VEC2"
        },
        {
            "bufferView" : 3,
            "componentType" : 5123,
            "count" : 2346,
            "type" : "SCALAR"
        }
    ],
    "bufferViews" : [
        {
            "buffer" : 0,
            "byteLength" : 5208,
            "byteOffset" : 0
        },
        {
            "buffer" : 0,
            "byteLength" : 5208,
            "byteOffset" : 5208
        },
        {
            "buffer" : 0,
            "byteLength" : 3472,
            "byteOffset" : 10416
        },
        {
            "buffer" : 0,
            "byteLength" : 4692,
            "byteOffset" : 13888
        }
    ],
    "buffers" : [
        {
            "byteLength" : 18580,
            "uri" : "forward_back_button.bin"
        }
    ]
}
