{
    "asset" : {
        "generator" : "Khronos glTF Blender I/O v1.3.48",
        "version" : "2.0"
    },
    "scene" : 0,
    "scenes" : [
        {
            "name" : "Scene",
            "nodes" : [
                0
            ]
        }
    ],
    "nodes" : [
        {
            "mesh" : 0,
            "name" : "Plant",
            "translation" : [
                -0.6862106323242188,
                0,
                0
            ]
        }
    ],
    "materials" : [
        {
            "doubleSided" : true,
            "emissiveFactor" : [
                0,
                0,
                0
            ],
            "name" : "Orange flower pot",
            "pbrMetallicRoughness" : {
                "baseColorFactor" : [
                    0.3049873113632202,
                    0.08865559101104736,
                    0.024157628417015076,
                    1
                ],
                "metallicFactor" : 0,
                "roughnessFactor" : 0.800000011920929
            }
        },
        {
            "doubleSided" : true,
            "emissiveFactor" : [
                0,
                0,
                0
            ],
            "name" : "Soil2",
            "pbrMetallicRoughness" : {
                "metallicFactor" : 0
            }
        },
        {
            "doubleSided" : true,
            "emissiveFactor" : [
                0,
                0,
                0
            ],
            "name" : "Plant",
            "pbrMetallicRoughness" : {
                "metallicFactor" : 0
            }
        }
    ],
    "meshes" : [
        {
            "name" : "Cylinder.2594",
            "primitives" : [
                {
                    "attributes" : {
                        "POSITION" : 0,
                        "NORMAL" : 1,
                        "TEXCOORD_0" : 2
                    },
                    "indices" : 3,
                    "material" : 0
                },
                {
                    "attributes" : {
                        "POSITION" : 4,
                        "NORMAL" : 5,
                        "TEXCOORD_0" : 6
                    },
                    "indices" : 7,
                    "material" : 1
                },
                {
                    "attributes" : {
                        "POSITION" : 8,
                        "NORMAL" : 9,
                        "TEXCOORD_0" : 10
                    },
                    "indices" : 11,
                    "material" : 2
                }
            ]
        }
    ],
    "accessors" : [
        {
            "bufferView" : 0,
            "componentType" : 5126,
            "count" : 1230,
            "max" : [
                0.1669493019580841,
                0.3234550356864929,
                0.16694927215576172
            ],
            "min" : [
                -0.16694924235343933,
                0,
                -0.1669493019580841
            ],
            "type" : "VEC3"
        },
        {
            "bufferView" : 1,
            "componentType" : 5126,
            "count" : 1230,
            "type" : "VEC3"
        },
        {
            "bufferView" : 2,
            "componentType" : 5126,
            "count" : 1230,
            "type" : "VEC2"
        },
        {
            "bufferView" : 3,
            "componentType" : 5123,
            "count" : 1962,
            "type" : "SCALAR"
        },
        {
            "bufferView" : 4,
            "componentType" : 5126,
            "count" : 32,
            "max" : [
                0.16318604350090027,
                0.26629117131233215,
                0.16318601369857788
            ],
            "min" : [
                -0.1631859987974167,
                0.26629117131233215,
                -0.1631859838962555
            ],
            "type" : "VEC3"
        },
        {
            "bufferView" : 5,
            "componentType" : 5126,
            "count" : 32,
            "type" : "VEC3"
        },
        {
            "bufferView" : 6,
            "componentType" : 5126,
            "count" : 32,
            "type" : "VEC2"
        },
        {
            "bufferView" : 7,
            "componentType" : 5123,
            "count" : 90,
            "type" : "SCALAR"
        },
        {
            "bufferView" : 8,
            "componentType" : 5126,
            "count" : 29737,
            "max" : [
                0.46367040276527405,
                1.6794781684875488,
                0.21421106159687042
            ],
            "min" : [
                -0.43670883774757385,
                0.26629114151000977,
                -0.39976173639297485
            ],
            "type" : "VEC3"
        },
        {
            "bufferView" : 9,
            "componentType" : 5126,
            "count" : 29737,
            "type" : "VEC3"
        },
        {
            "bufferView" : 10,
            "componentType" : 5126,
            "count" : 29737,
            "type" : "VEC2"
        },
        {
            "bufferView" : 11,
            "componentType" : 5123,
            "count" : 53478,
            "type" : "SCALAR"
        }
    ],
    "bufferViews" : [
        {
            "buffer" : 0,
            "byteLength" : 14760,
            "byteOffset" : 0
        },
        {
            "buffer" : 0,
            "byteLength" : 14760,
            "byteOffset" : 14760
        },
        {
            "buffer" : 0,
            "byteLength" : 9840,
            "byteOffset" : 29520
        },
        {
            "buffer" : 0,
            "byteLength" : 3924,
            "byteOffset" : 39360
        },
        {
            "buffer" : 0,
            "byteLength" : 384,
            "byteOffset" : 43284
        },
        {
            "buffer" : 0,
            "byteLength" : 384,
            "byteOffset" : 43668
        },
        {
            "buffer" : 0,
            "byteLength" : 256,
            "byteOffset" : 44052
        },
        {
            "buffer" : 0,
            "byteLength" : 180,
            "byteOffset" : 44308
        },
        {
            "buffer" : 0,
            "byteLength" : 356844,
            "byteOffset" : 44488
        },
        {
            "buffer" : 0,
            "byteLength" : 356844,
            "byteOffset" : 401332
        },
        {
            "buffer" : 0,
            "byteLength" : 237896,
            "byteOffset" : 758176
        },
        {
            "buffer" : 0,
            "byteLength" : 106956,
            "byteOffset" : 996072
        }
    ],
    "buffers" : [
        {
            "byteLength" : 1103028,
            "uri" : "plant.bin"
        }
    ]
}
