{
    "asset" : {
        "generator" : "Khronos glTF Blender I/O v1.3.48",
        "version" : "2.0"
    },
    "scene" : 0,
    "scenes" : [
        {
            "name" : "Scene",
            "nodes" : [
                0
            ]
        }
    ],
    "nodes" : [
        {
            "mesh" : 0,
            "name" : "Snake plant",
            "translation" : [
                7.012519836425781,
                0.01713058352470398,
                0
            ]
        }
    ],
    "materials" : [
        {
            "doubleSided" : true,
            "emissiveFactor" : [
                0,
                0,
                0
            ],
            "name" : "Snake plant",
            "pbrMetallicRoughness" : {
                "metallicFactor" : 0
            }
        },
        {
            "doubleSided" : true,
            "emissiveFactor" : [
                0,
                0,
                0
            ],
            "name" : "White flower pot",
            "pbrMetallicRoughness" : {
                "baseColorFactor" : [
                    1,
                    1,
                    1,
                    1
                ],
                "metallicFactor" : 0,
                "roughnessFactor" : 0
            }
        },
        {
            "doubleSided" : true,
            "emissiveFactor" : [
                0,
                0,
                0
            ],
            "name" : "Soil 1",
            "pbrMetallicRoughness" : {
                "metallicFactor" : 0
            }
        }
    ],
    "meshes" : [
        {
            "name" : "Cylinder.2418",
            "primitives" : [
                {
                    "attributes" : {
                        "POSITION" : 0,
                        "NORMAL" : 1,
                        "TEXCOORD_0" : 2
                    },
                    "indices" : 3,
                    "material" : 0
                },
                {
                    "attributes" : {
                        "POSITION" : 4,
                        "NORMAL" : 5,
                        "TEXCOORD_0" : 6
                    },
                    "indices" : 7,
                    "material" : 1
                },
                {
                    "attributes" : {
                        "POSITION" : 8,
                        "NORMAL" : 9,
                        "TEXCOORD_0" : 10
                    },
                    "indices" : 11,
                    "material" : 2
                }
            ]
        }
    ],
    "accessors" : [
        {
            "bufferView" : 0,
            "componentType" : 5126,
            "count" : 3372,
            "max" : [
                0.5609700083732605,
                5.988866806030273,
                0.9051997661590576
            ],
            "min" : [
                -0.6235010027885437,
                0.9159948229789734,
                -0.6381431221961975
            ],
            "type" : "VEC3"
        },
        {
            "bufferView" : 1,
            "componentType" : 5126,
            "count" : 3372,
            "type" : "VEC3"
        },
        {
            "bufferView" : 2,
            "componentType" : 5126,
            "count" : 3372,
            "type" : "VEC2"
        },
        {
            "bufferView" : 3,
            "componentType" : 5123,
            "count" : 5064,
            "type" : "SCALAR"
        },
        {
            "bufferView" : 4,
            "componentType" : 5126,
            "count" : 2112,
            "max" : [
                0.6949605941772461,
                0.9855034351348877,
                0.6949610710144043
            ],
            "min" : [
                -0.694961428642273,
                -3.493914846330881e-08,
                -0.6949610114097595
            ],
            "type" : "VEC3"
        },
        {
            "bufferView" : 5,
            "componentType" : 5126,
            "count" : 2112,
            "type" : "VEC3"
        },
        {
            "bufferView" : 6,
            "componentType" : 5126,
            "count" : 2112,
            "type" : "VEC2"
        },
        {
            "bufferView" : 7,
            "componentType" : 5123,
            "count" : 3258,
            "type" : "SCALAR"
        },
        {
            "bufferView" : 8,
            "componentType" : 5126,
            "count" : 64,
            "max" : [
                0.6431165337562561,
                0.9159967303276062,
                0.6431170105934143
            ],
            "min" : [
                -0.6431173086166382,
                0.9159967303276062,
                -0.6431169509887695
            ],
            "type" : "VEC3"
        },
        {
            "bufferView" : 9,
            "componentType" : 5126,
            "count" : 64,
            "type" : "VEC3"
        },
        {
            "bufferView" : 10,
            "componentType" : 5126,
            "count" : 64,
            "type" : "VEC2"
        },
        {
            "bufferView" : 11,
            "componentType" : 5123,
            "count" : 186,
            "type" : "SCALAR"
        }
    ],
    "bufferViews" : [
        {
            "buffer" : 0,
            "byteLength" : 40464,
            "byteOffset" : 0
        },
        {
            "buffer" : 0,
            "byteLength" : 40464,
            "byteOffset" : 40464
        },
        {
            "buffer" : 0,
            "byteLength" : 26976,
            "byteOffset" : 80928
        },
        {
            "buffer" : 0,
            "byteLength" : 10128,
            "byteOffset" : 107904
        },
        {
            "buffer" : 0,
            "byteLength" : 25344,
            "byteOffset" : 118032
        },
        {
            "buffer" : 0,
            "byteLength" : 25344,
            "byteOffset" : 143376
        },
        {
            "buffer" : 0,
            "byteLength" : 16896,
            "byteOffset" : 168720
        },
        {
            "buffer" : 0,
            "byteLength" : 6516,
            "byteOffset" : 185616
        },
        {
            "buffer" : 0,
            "byteLength" : 768,
            "byteOffset" : 192132
        },
        {
            "buffer" : 0,
            "byteLength" : 768,
            "byteOffset" : 192900
        },
        {
            "buffer" : 0,
            "byteLength" : 512,
            "byteOffset" : 193668
        },
        {
            "buffer" : 0,
            "byteLength" : 372,
            "byteOffset" : 194180
        }
    ],
    "buffers" : [
        {
            "byteLength" : 194552,
            "uri" : "snake_plant.bin"
        }
    ]
}
