{
    "asset" : {
        "generator" : "Khronos glTF Blender I/O v1.3.48",
        "version" : "2.0"
    },
    "scene" : 0,
    "scenes" : [
        {
            "name" : "Scene",
            "nodes" : [
                0
            ]
        }
    ],
    "nodes" : [
        {
            "mesh" : 0,
            "name" : "Corn plant",
            "translation" : [
                1.8653892278671265,
                2.975909471511841,
                0.030461784452199936
            ]
        }
    ],
    "materials" : [
        {
            "doubleSided" : true,
            "emissiveFactor" : [
                0,
                0,
                0
            ],
            "name" : "Flower pot 1",
            "pbrMetallicRoughness" : {
                "metallicFactor" : 0
            }
        },
        {
            "doubleSided" : true,
            "emissiveFactor" : [
                0,
                0,
                0
            ],
            "name" : "Soil2",
            "pbrMetallicRoughness" : {
                "metallicFactor" : 0
            }
        },
        {
            "doubleSided" : true,
            "emissiveFactor" : [
                0,
                0,
                0
            ],
            "name" : "Corn plant",
            "pbrMetallicRoughness" : {
                "metallicFactor" : 0
            }
        },
        {
            "doubleSided" : true,
            "emissiveFactor" : [
                0,
                0,
                0
            ],
            "name" : "Leaves",
            "pbrMetallicRoughness" : {
                "metallicFactor" : 0
            }
        }
    ],
    "meshes" : [
        {
            "name" : "Cylinder.2436",
            "primitives" : [
                {
                    "attributes" : {
                        "POSITION" : 0,
                        "NORMAL" : 1,
                        "TEXCOORD_0" : 2
                    },
                    "indices" : 3,
                    "material" : 0
                },
                {
                    "attributes" : {
                        "POSITION" : 4,
                        "NORMAL" : 5,
                        "TEXCOORD_0" : 6
                    },
                    "indices" : 7,
                    "material" : 1
                },
                {
                    "attributes" : {
                        "POSITION" : 8,
                        "NORMAL" : 9,
                        "TEXCOORD_0" : 10
                    },
                    "indices" : 11,
                    "material" : 2
                },
                {
                    "attributes" : {
                        "POSITION" : 12,
                        "NORMAL" : 13,
                        "TEXCOORD_0" : 14
                    },
                    "indices" : 15,
                    "material" : 3
                }
            ]
        }
    ],
    "accessors" : [
        {
            "bufferView" : 0,
            "componentType" : 5126,
            "count" : 796,
            "max" : [
                0.4944323003292084,
                -0.9697747230529785,
                0.4892863631248474
            ],
            "min" : [
                -0.5450636148452759,
                -2.980961322784424,
                -0.5502095222473145
            ],
            "type" : "VEC3"
        },
        {
            "bufferView" : 1,
            "componentType" : 5126,
            "count" : 796,
            "type" : "VEC3"
        },
        {
            "bufferView" : 2,
            "componentType" : 5126,
            "count" : 796,
            "type" : "VEC2"
        },
        {
            "bufferView" : 3,
            "componentType" : 5123,
            "count" : 1242,
            "type" : "SCALAR"
        },
        {
            "bufferView" : 4,
            "componentType" : 5126,
            "count" : 32,
            "max" : [
                0.4509580433368683,
                -1.1523902416229248,
                0.44581177830696106
            ],
            "min" : [
                -0.501588761806488,
                -1.1523902416229248,
                -0.50673508644104
            ],
            "type" : "VEC3"
        },
        {
            "bufferView" : 5,
            "componentType" : 5126,
            "count" : 32,
            "type" : "VEC3"
        },
        {
            "bufferView" : 6,
            "componentType" : 5126,
            "count" : 32,
            "type" : "VEC2"
        },
        {
            "bufferView" : 7,
            "componentType" : 5123,
            "count" : 90,
            "type" : "SCALAR"
        },
        {
            "bufferView" : 8,
            "componentType" : 5126,
            "count" : 1536,
            "max" : [
                0.28989338874816895,
                1.2792339324951172,
                0.1807163506746292
            ],
            "min" : [
                -0.341764897108078,
                -1.1523903608322144,
                -0.36473795771598816
            ],
            "type" : "VEC3"
        },
        {
            "bufferView" : 9,
            "componentType" : 5126,
            "count" : 1536,
            "type" : "VEC3"
        },
        {
            "bufferView" : 10,
            "componentType" : 5126,
            "count" : 1536,
            "type" : "VEC2"
        },
        {
            "bufferView" : 11,
            "componentType" : 5123,
            "count" : 2304,
            "type" : "SCALAR"
        },
        {
            "bufferView" : 12,
            "componentType" : 5126,
            "count" : 36560,
            "max" : [
                1.0634409189224243,
                3.1896512508392334,
                0.7412130832672119
            ],
            "min" : [
                -0.7291452884674072,
                0.1466960906982422,
                -0.8102307319641113
            ],
            "type" : "VEC3"
        },
        {
            "bufferView" : 13,
            "componentType" : 5126,
            "count" : 36560,
            "type" : "VEC3"
        },
        {
            "bufferView" : 14,
            "componentType" : 5126,
            "count" : 36560,
            "type" : "VEC2"
        },
        {
            "bufferView" : 15,
            "componentType" : 5123,
            "count" : 54966,
            "type" : "SCALAR"
        }
    ],
    "bufferViews" : [
        {
            "buffer" : 0,
            "byteLength" : 9552,
            "byteOffset" : 0
        },
        {
            "buffer" : 0,
            "byteLength" : 9552,
            "byteOffset" : 9552
        },
        {
            "buffer" : 0,
            "byteLength" : 6368,
            "byteOffset" : 19104
        },
        {
            "buffer" : 0,
            "byteLength" : 2484,
            "byteOffset" : 25472
        },
        {
            "buffer" : 0,
            "byteLength" : 384,
            "byteOffset" : 27956
        },
        {
            "buffer" : 0,
            "byteLength" : 384,
            "byteOffset" : 28340
        },
        {
            "buffer" : 0,
            "byteLength" : 256,
            "byteOffset" : 28724
        },
        {
            "buffer" : 0,
            "byteLength" : 180,
            "byteOffset" : 28980
        },
        {
            "buffer" : 0,
            "byteLength" : 18432,
            "byteOffset" : 29160
        },
        {
            "buffer" : 0,
            "byteLength" : 18432,
            "byteOffset" : 47592
        },
        {
            "buffer" : 0,
            "byteLength" : 12288,
            "byteOffset" : 66024
        },
        {
            "buffer" : 0,
            "byteLength" : 4608,
            "byteOffset" : 78312
        },
        {
            "buffer" : 0,
            "byteLength" : 438720,
            "byteOffset" : 82920
        },
        {
            "buffer" : 0,
            "byteLength" : 438720,
            "byteOffset" : 521640
        },
        {
            "buffer" : 0,
            "byteLength" : 292480,
            "byteOffset" : 960360
        },
        {
            "buffer" : 0,
            "byteLength" : 109932,
            "byteOffset" : 1252840
        }
    ],
    "buffers" : [
        {
            "byteLength" : 1362772,
            "uri" : "corn_plant.bin"
        }
    ]
}
