{
    "asset" : {
        "generator" : "Khronos glTF Blender I/O v1.3.48",
        "version" : "2.0"
    },
    "scene" : 0,
    "scenes" : [
        {
            "name" : "Scene",
            "nodes" : [
                0
            ]
        }
    ],
    "nodes" : [
        {
            "mesh" : 0,
            "name" : "Desk",
            "translation" : [
                0.8686120510101318,
                0.3600735366344452,
                0.15388652682304382
            ]
        }
    ],
    "materials" : [
        {
            "doubleSided" : true,
            "emissiveFactor" : [
                0,
                0,
                0
            ],
            "name" : "Desk_Material",
            "pbrMetallicRoughness" : {
                "baseColorFactor" : [
                    0.800000011920929,
                    0.800000011920929,
                    0.800000011920929,
                    1
                ],
                "metallicFactor" : 1,
                "roughnessFactor" : 0.5527864098548889
            }
        }
    ],
    "meshes" : [
        {
            "name" : "Plane.021",
            "primitives" : [
                {
                    "attributes" : {
                        "POSITION" : 0,
                        "NORMAL" : 1,
                        "TEXCOORD_0" : 2
                    },
                    "indices" : 3,
                    "material" : 0
                }
            ]
        }
    ],
    "accessors" : [
        {
            "bufferView" : 0,
            "componentType" : 5126,
            "count" : 3331,
            "max" : [
                0.931394100189209,
                0.0035000003408640623,
                0.2504970133304596
            ],
            "min" : [
                -0.8936729431152344,
                -0.7270734906196594,
                -0.5538867115974426
            ],
            "type" : "VEC3"
        },
        {
            "bufferView" : 1,
            "componentType" : 5126,
            "count" : 3331,
            "type" : "VEC3"
        },
        {
            "bufferView" : 2,
            "componentType" : 5126,
            "count" : 3331,
            "type" : "VEC2"
        },
        {
            "bufferView" : 3,
            "componentType" : 5123,
            "count" : 11304,
            "type" : "SCALAR"
        }
    ],
    "bufferViews" : [
        {
            "buffer" : 0,
            "byteLength" : 39972,
            "byteOffset" : 0
        },
        {
            "buffer" : 0,
            "byteLength" : 39972,
            "byteOffset" : 39972
        },
        {
            "buffer" : 0,
            "byteLength" : 26648,
            "byteOffset" : 79944
        },
        {
            "buffer" : 0,
            "byteLength" : 22608,
            "byteOffset" : 106592
        }
    ],
    "buffers" : [
        {
            "byteLength" : 129200,
            "uri" : "desk.bin"
        }
    ]
}
