{
    "asset" : {
        "generator" : "Khronos glTF Blender I/O v1.3.48",
        "version" : "2.0"
    },
    "scene" : 0,
    "scenes" : [
        {
            "name" : "Scene",
            "nodes" : [
                0
            ]
        }
    ],
    "nodes" : [
        {
            "mesh" : 0,
            "name" : "Dracaena_sanderiana_001",
            "rotation" : [
                0.009996489621698856,
                0.8620405793190002,
                -0.004705458413809538,
                0.5067188143730164
            ],
            "scale" : [
                0.00599999725818634,
                0.0060000005178153515,
                0.005999998189508915
            ],
            "translation" : [
                0.010627834126353264,
                0.01886657625436783,
                0.0008322906214743853
            ]
        }
    ],
    "materials" : [
        {
            "doubleSided" : true,
            "emissiveFactor" : [
                0,
                0,
                0
            ],
            "name" : "Material #65",
            "pbrMetallicRoughness" : {
                "baseColorFactor" : [
                    0.5,
                    0.5,
                    0.5,
                    1
                ],
                "metallicFactor" : 0,
                "roughnessFactor" : 0.5527864098548889
            }
        },
        {
            "doubleSided" : true,
            "emissiveFactor" : [
                0,
                0,
                0
            ],
            "name" : "Material #57",
            "pbrMetallicRoughness" : {
                "baseColorFactor" : [
                    0.5,
                    0.5,
                    0.5,
                    1
                ],
                "metallicFactor" : 0,
                "roughnessFactor" : 0.5527864098548889
            }
        },
        {
            "doubleSided" : true,
            "emissiveFactor" : [
                0,
                0,
                0
            ],
            "name" : "Material #53",
            "pbrMetallicRoughness" : {
                "baseColorFactor" : [
                    0.5,
                    0.5,
                    0.5,
                    1
                ],
                "metallicFactor" : 0,
                "roughnessFactor" : 0.5527864098548889
            }
        },
        {
            "doubleSided" : true,
            "emissiveFactor" : [
                0,
                0,
                0
            ],
            "name" : "Material #58",
            "pbrMetallicRoughness" : {
                "baseColorFactor" : [
                    0.5,
                    0.5,
                    0.5,
                    1
                ],
                "metallicFactor" : 0,
                "roughnessFactor" : 0.5527864098548889
            }
        },
        {
            "doubleSided" : true,
            "emissiveFactor" : [
                0,
                0,
                0
            ],
            "name" : "Material #59",
            "pbrMetallicRoughness" : {
                "baseColorFactor" : [
                    0.5,
                    0.5,
                    0.5,
                    0.10900002717971802
                ],
                "metallicFactor" : 0,
                "roughnessFactor" : 0.5527864098548889
            }
        }
    ],
    "meshes" : [
        {
            "name" : "Mesh.003",
            "primitives" : [
                {
                    "attributes" : {
                        "POSITION" : 0,
                        "NORMAL" : 1,
                        "TEXCOORD_0" : 2
                    },
                    "indices" : 3,
                    "material" : 0
                },
                {
                    "attributes" : {
                        "POSITION" : 4,
                        "NORMAL" : 5,
                        "TEXCOORD_0" : 6
                    },
                    "indices" : 7,
                    "material" : 1
                },
                {
                    "attributes" : {
                        "POSITION" : 8,
                        "NORMAL" : 9,
                        "TEXCOORD_0" : 10
                    },
                    "indices" : 11,
                    "material" : 2
                },
                {
                    "attributes" : {
                        "POSITION" : 12,
                        "NORMAL" : 13,
                        "TEXCOORD_0" : 14
                    },
                    "indices" : 15,
                    "material" : 3
                },
                {
                    "attributes" : {
                        "POSITION" : 16,
                        "NORMAL" : 17,
                        "TEXCOORD_0" : 18
                    },
                    "indices" : 19,
                    "material" : 4
                }
            ]
        }
    ],
    "accessors" : [
        {
            "bufferView" : 0,
            "componentType" : 5126,
            "count" : 28,
            "max" : [
                -1.4992847442626953,
                59.69437789916992,
                6.494907379150391
            ],
            "min" : [
                -2.956688165664673,
                57.026729583740234,
                4.2291951179504395
            ],
            "type" : "VEC3"
        },
        {
            "bufferView" : 1,
            "componentType" : 5126,
            "count" : 28,
            "type" : "VEC3"
        },
        {
            "bufferView" : 2,
            "componentType" : 5126,
            "count" : 28,
            "type" : "VEC2"
        },
        {
            "bufferView" : 3,
            "componentType" : 5123,
            "count" : 114,
            "type" : "SCALAR"
        },
        {
            "bufferView" : 4,
            "componentType" : 5126,
            "count" : 1252,
            "max" : [
                2.844618320465088,
                84.67420959472656,
                5.465281963348389
            ],
            "min" : [
                -14.455206871032715,
                54.389404296875,
                -15.771906852722168
            ],
            "type" : "VEC3"
        },
        {
            "bufferView" : 5,
            "componentType" : 5126,
            "count" : 1252,
            "type" : "VEC3"
        },
        {
            "bufferView" : 6,
            "componentType" : 5126,
            "count" : 1252,
            "type" : "VEC2"
        },
        {
            "bufferView" : 7,
            "componentType" : 5123,
            "count" : 3576,
            "type" : "SCALAR"
        },
        {
            "bufferView" : 8,
            "componentType" : 5126,
            "count" : 1171,
            "max" : [
                15.039679527282715,
                119.45333862304688,
                0.37136954069137573
            ],
            "min" : [
                -24.069467544555664,
                72.15278625488281,
                -26.209138870239258
            ],
            "type" : "VEC3"
        },
        {
            "bufferView" : 9,
            "componentType" : 5126,
            "count" : 1171,
            "type" : "VEC3"
        },
        {
            "bufferView" : 10,
            "componentType" : 5126,
            "count" : 1171,
            "type" : "VEC2"
        },
        {
            "bufferView" : 11,
            "componentType" : 5123,
            "count" : 5715,
            "type" : "SCALAR"
        },
        {
            "bufferView" : 12,
            "componentType" : 5126,
            "count" : 3716,
            "max" : [
                12.53156852722168,
                104.0993881225586,
                8.468545913696289
            ],
            "min" : [
                -6.5265116691589355,
                -0.282439261674881,
                -8.933039665222168
            ],
            "type" : "VEC3"
        },
        {
            "bufferView" : 13,
            "componentType" : 5126,
            "count" : 3716,
            "type" : "VEC3"
        },
        {
            "bufferView" : 14,
            "componentType" : 5126,
            "count" : 3716,
            "type" : "VEC2"
        },
        {
            "bufferView" : 15,
            "componentType" : 5123,
            "count" : 20448,
            "type" : "SCALAR"
        },
        {
            "bufferView" : 16,
            "componentType" : 5126,
            "count" : 1080,
            "max" : [
                11.571564674377441,
                21.9345703125,
                11.271912574768066
            ],
            "min" : [
                -11.276579856872559,
                -3.505155563354492,
                -11.577973365783691
            ],
            "type" : "VEC3"
        },
        {
            "bufferView" : 17,
            "componentType" : 5126,
            "count" : 1080,
            "type" : "VEC3"
        },
        {
            "bufferView" : 18,
            "componentType" : 5126,
            "count" : 1080,
            "type" : "VEC2"
        },
        {
            "bufferView" : 19,
            "componentType" : 5123,
            "count" : 1560,
            "type" : "SCALAR"
        }
    ],
    "bufferViews" : [
        {
            "buffer" : 0,
            "byteLength" : 336,
            "byteOffset" : 0
        },
        {
            "buffer" : 0,
            "byteLength" : 336,
            "byteOffset" : 336
        },
        {
            "buffer" : 0,
            "byteLength" : 224,
            "byteOffset" : 672
        },
        {
            "buffer" : 0,
            "byteLength" : 228,
            "byteOffset" : 896
        },
        {
            "buffer" : 0,
            "byteLength" : 15024,
            "byteOffset" : 1124
        },
        {
            "buffer" : 0,
            "byteLength" : 15024,
            "byteOffset" : 16148
        },
        {
            "buffer" : 0,
            "byteLength" : 10016,
            "byteOffset" : 31172
        },
        {
            "buffer" : 0,
            "byteLength" : 7152,
            "byteOffset" : 41188
        },
        {
            "buffer" : 0,
            "byteLength" : 14052,
            "byteOffset" : 48340
        },
        {
            "buffer" : 0,
            "byteLength" : 14052,
            "byteOffset" : 62392
        },
        {
            "buffer" : 0,
            "byteLength" : 9368,
            "byteOffset" : 76444
        },
        {
            "buffer" : 0,
            "byteLength" : 11430,
            "byteOffset" : 85812
        },
        {
            "buffer" : 0,
            "byteLength" : 44592,
            "byteOffset" : 97244
        },
        {
            "buffer" : 0,
            "byteLength" : 44592,
            "byteOffset" : 141836
        },
        {
            "buffer" : 0,
            "byteLength" : 29728,
            "byteOffset" : 186428
        },
        {
            "buffer" : 0,
            "byteLength" : 40896,
            "byteOffset" : 216156
        },
        {
            "buffer" : 0,
            "byteLength" : 12960,
            "byteOffset" : 257052
        },
        {
            "buffer" : 0,
            "byteLength" : 12960,
            "byteOffset" : 270012
        },
        {
            "buffer" : 0,
            "byteLength" : 8640,
            "byteOffset" : 282972
        },
        {
            "buffer" : 0,
            "byteLength" : 3120,
            "byteOffset" : 291612
        }
    ],
    "buffers" : [
        {
            "byteLength" : 294732,
            "uri" : "dracaena_sanderiana.bin"
        }
    ]
}
