{
    "asset" : {
        "generator" : "Khronos glTF Blender I/O v1.3.48",
        "version" : "2.0"
    },
    "scene" : 0,
    "scenes" : [
        {
            "name" : "Scene",
            "nodes" : [
                0
            ]
        }
    ],
    "nodes" : [
        {
            "mesh" : 0,
            "name" : "Cactus 1",
            "translation" : [
                5.2367963790893555,
                0.1595141887664795,
                0.00010189762542722747
            ]
        }
    ],
    "materials" : [
        {
            "doubleSided" : true,
            "emissiveFactor" : [
                0,
                0,
                0
            ],
            "name" : "White flower pot",
            "pbrMetallicRoughness" : {
                "baseColorFactor" : [
                    1,
                    1,
                    1,
                    1
                ],
                "metallicFactor" : 0,
                "roughnessFactor" : 0
            }
        },
        {
            "doubleSided" : true,
            "emissiveFactor" : [
                0,
                0,
                0
            ],
            "name" : "Soil 1",
            "pbrMetallicRoughness" : {
                "metallicFactor" : 0
            }
        },
        {
            "doubleSided" : true,
            "emissiveFactor" : [
                0,
                0,
                0
            ],
            "name" : "Stone",
            "pbrMetallicRoughness" : {
                "metallicFactor" : 0
            }
        },
        {
            "doubleSided" : true,
            "emissiveFactor" : [
                0,
                0,
                0
            ],
            "name" : "Cactus 1",
            "pbrMetallicRoughness" : {
                "metallicFactor" : 0
            }
        }
    ],
    "meshes" : [
        {
            "name" : "Cube.2111",
            "primitives" : [
                {
                    "attributes" : {
                        "POSITION" : 0,
                        "NORMAL" : 1,
                        "TEXCOORD_0" : 2
                    },
                    "indices" : 3,
                    "material" : 0
                },
                {
                    "attributes" : {
                        "POSITION" : 4,
                        "NORMAL" : 5,
                        "TEXCOORD_0" : 6
                    },
                    "indices" : 7,
                    "material" : 1
                },
                {
                    "attributes" : {
                        "POSITION" : 8,
                        "NORMAL" : 9,
                        "TEXCOORD_0" : 10
                    },
                    "indices" : 11,
                    "material" : 2
                },
                {
                    "attributes" : {
                        "POSITION" : 12,
                        "NORMAL" : 13,
                        "TEXCOORD_0" : 14
                    },
                    "indices" : 15,
                    "material" : 3
                }
            ]
        }
    ],
    "accessors" : [
        {
            "bufferView" : 0,
            "componentType" : 5126,
            "count" : 396,
            "max" : [
                0.16092433035373688,
                0.1617833971977234,
                0.1605468988418579
            ],
            "min" : [
                -0.160373255610466,
                -0.1595141887664795,
                -0.16075068712234497
            ],
            "type" : "VEC3"
        },
        {
            "bufferView" : 1,
            "componentType" : 5126,
            "count" : 396,
            "type" : "VEC3"
        },
        {
            "bufferView" : 2,
            "componentType" : 5126,
            "count" : 396,
            "type" : "VEC2"
        },
        {
            "bufferView" : 3,
            "componentType" : 5123,
            "count" : 582,
            "type" : "SCALAR"
        },
        {
            "bufferView" : 4,
            "componentType" : 5126,
            "count" : 4,
            "max" : [
                0.1368270069360733,
                0.13912540674209595,
                0.13644957542419434
            ],
            "min" : [
                -0.13627593219280243,
                0.13912540674209595,
                -0.1366533637046814
            ],
            "type" : "VEC3"
        },
        {
            "bufferView" : 5,
            "componentType" : 5126,
            "count" : 4,
            "type" : "VEC3"
        },
        {
            "bufferView" : 6,
            "componentType" : 5126,
            "count" : 4,
            "type" : "VEC2"
        },
        {
            "bufferView" : 7,
            "componentType" : 5123,
            "count" : 6,
            "type" : "SCALAR"
        },
        {
            "bufferView" : 8,
            "componentType" : 5126,
            "count" : 5082,
            "max" : [
                0.13645267486572266,
                0.18447500467300415,
                0.13689179718494415
            ],
            "min" : [
                -0.13648150861263275,
                0.1391252875328064,
                -0.13577939569950104
            ],
            "type" : "VEC3"
        },
        {
            "bufferView" : 9,
            "componentType" : 5126,
            "count" : 5082,
            "type" : "VEC3"
        },
        {
            "bufferView" : 10,
            "componentType" : 5126,
            "count" : 5082,
            "type" : "VEC2"
        },
        {
            "bufferView" : 11,
            "componentType" : 5123,
            "count" : 23232,
            "type" : "SCALAR"
        },
        {
            "bufferView" : 12,
            "componentType" : 5126,
            "count" : 1072,
            "max" : [
                0.5472267270088196,
                0.7157172560691833,
                0.39634233713150024
            ],
            "min" : [
                -0.3309905529022217,
                0.13912540674209595,
                -0.2702522277832031
            ],
            "type" : "VEC3"
        },
        {
            "bufferView" : 13,
            "componentType" : 5126,
            "count" : 1072,
            "type" : "VEC3"
        },
        {
            "bufferView" : 14,
            "componentType" : 5126,
            "count" : 1072,
            "type" : "VEC2"
        },
        {
            "bufferView" : 15,
            "componentType" : 5123,
            "count" : 1608,
            "type" : "SCALAR"
        }
    ],
    "bufferViews" : [
        {
            "buffer" : 0,
            "byteLength" : 4752,
            "byteOffset" : 0
        },
        {
            "buffer" : 0,
            "byteLength" : 4752,
            "byteOffset" : 4752
        },
        {
            "buffer" : 0,
            "byteLength" : 3168,
            "byteOffset" : 9504
        },
        {
            "buffer" : 0,
            "byteLength" : 1164,
            "byteOffset" : 12672
        },
        {
            "buffer" : 0,
            "byteLength" : 48,
            "byteOffset" : 13836
        },
        {
            "buffer" : 0,
            "byteLength" : 48,
            "byteOffset" : 13884
        },
        {
            "buffer" : 0,
            "byteLength" : 32,
            "byteOffset" : 13932
        },
        {
            "buffer" : 0,
            "byteLength" : 12,
            "byteOffset" : 13964
        },
        {
            "buffer" : 0,
            "byteLength" : 60984,
            "byteOffset" : 13976
        },
        {
            "buffer" : 0,
            "byteLength" : 60984,
            "byteOffset" : 74960
        },
        {
            "buffer" : 0,
            "byteLength" : 40656,
            "byteOffset" : 135944
        },
        {
            "buffer" : 0,
            "byteLength" : 46464,
            "byteOffset" : 176600
        },
        {
            "buffer" : 0,
            "byteLength" : 12864,
            "byteOffset" : 223064
        },
        {
            "buffer" : 0,
            "byteLength" : 12864,
            "byteOffset" : 235928
        },
        {
            "buffer" : 0,
            "byteLength" : 8576,
            "byteOffset" : 248792
        },
        {
            "buffer" : 0,
            "byteLength" : 3216,
            "byteOffset" : 257368
        }
    ],
    "buffers" : [
        {
            "byteLength" : 260584,
            "uri" : "cactus1.bin"
        }
    ]
}
